<svg width="146" height="21" viewBox="0 0 146 21" fill="none" xmlns="http://www.w3.org/2000/svg">
<g clip-path="url(#clip0_2_48)">
<path d="M39.61 16.6394C42.6022 16.6394 45.0153 14.9363 45.8546 12.2126H41.7661C41.3716 12.9108 40.57 13.3319 39.61 13.3319C38.3122 13.3319 37.4435 12.6242 37.176 11.255H46.0309C46.0844 10.8854 46.1159 10.5263 46.1159 10.1661C46.1159 6.66435 43.4542 3.9186 39.61 3.9186C35.8666 3.9186 33.1315 6.6108 33.1315 10.2701C33.1315 13.9167 35.8887 16.6394 39.61 16.6394ZM42.0693 8.9775H37.2473C37.5799 7.79205 38.4119 7.14105 39.61 7.14105C40.8491 7.14105 41.7084 7.78365 42.0693 8.9775ZM53.5534 16.6383C54.9383 16.6383 56.1763 16.1826 57.152 15.3909L57.5045 16.2351H60.6803V4.29765H57.6178L57.1982 5.22165C56.212 4.4079 54.9582 3.93855 53.5534 3.93855C49.9065 3.93855 47.2993 6.5688 47.2993 10.2659C47.2993 13.9755 49.9065 16.6394 53.5534 16.6394V16.6383ZM54.1031 12.998C52.564 12.998 51.433 11.8346 51.433 10.2753C51.433 8.72655 52.5546 7.56315 54.1031 7.56315C55.6412 7.56315 56.7722 8.72655 56.7722 10.2753C56.7722 11.8346 55.6412 12.998 54.1031 12.998ZM67.8713 16.6383C71.0397 16.6383 73.1433 15.0066 73.1433 12.5118C73.1433 9.48465 70.639 9.093 68.7547 8.75805C67.6216 8.5554 66.7088 8.39685 66.7088 7.71855C66.7088 7.1652 67.1516 6.83865 67.8104 6.83865C68.5553 6.83865 69.0663 7.1925 69.0663 7.9548H72.9135C72.8674 5.53665 70.8992 3.91965 67.8608 3.91965C64.8056 3.91965 62.7682 5.46315 62.7682 7.85715C62.7682 10.752 65.22 11.3106 67.0697 11.6099C68.2154 11.7999 69.1177 11.9963 69.1177 12.6851C69.1177 13.3014 68.548 13.6091 67.9468 13.6091C67.1683 13.6091 66.5619 13.2069 66.5619 12.3344H62.6066C62.6444 14.9205 64.6199 16.6394 67.8713 16.6394V16.6383ZM76.3695 20.6892C79.4498 20.6892 80.927 19.3694 82.5354 15.7164L87.5336 4.31025H83.1208L80.7613 10.8864L78.2307 4.31025H73.7665L78.6955 15.2618C78.1394 16.7465 77.6641 17.156 76.0935 17.156H74.9626V20.6892H76.3695ZM95.7831 16.6383C99.4552 16.6383 102.05 13.9976 102.05 10.2879C102.05 6.57825 99.4563 3.9375 95.7831 3.9375C94.7377 3.92934 93.711 4.21452 92.8193 4.7607V0H88.759V16.2477H91.7984L92.1866 15.3615C93.155 16.1711 94.392 16.6383 95.7831 16.6383ZM95.2344 12.998C93.6953 12.998 92.5643 11.8346 92.5643 10.289C92.5643 8.72865 93.6953 7.56525 95.2344 7.56525C96.7725 7.56525 97.9035 8.72865 97.9035 10.2879C97.9035 11.8346 96.7631 12.998 95.2344 12.998ZM109.501 16.6383C110.886 16.6383 112.124 16.1826 113.1 15.3909L113.452 16.2351H116.628V4.29765H113.566L113.146 5.22165C112.161 4.4079 110.906 3.93855 109.501 3.93855C105.854 3.93855 103.248 6.5688 103.248 10.2659C103.248 13.9755 105.854 16.6394 109.501 16.6394V16.6383ZM110.051 12.998C108.512 12.998 107.381 11.8346 107.381 10.2753C107.381 8.72655 108.503 7.56315 110.051 7.56315C111.59 7.56315 112.721 8.72655 112.721 10.2753C112.721 11.8346 111.59 12.998 110.051 12.998ZM123.326 16.2477V9.87315C123.326 8.3538 124.062 7.45815 125.343 7.45815C126.378 7.45815 126.899 8.148 126.899 9.53715V16.2467H131.007V8.97015C131.007 5.9283 129.188 3.9585 126.419 3.9585C124.876 3.9585 123.551 4.55175 122.663 5.5419L122.099 4.3113H119.217V16.2488H123.326V16.2477ZM137.75 16.2477V11.1993L140.738 16.2477H145.581L141.487 10.0002L145.204 4.31025H140.591L137.75 8.98695V0H133.641V16.2477H137.75Z" fill="white"/>
<path fill-rule="evenodd" clip-rule="evenodd" d="M11.333 0L0 20.6892H6.28028L17.6144 0H11.333Z" fill="url(#paint0_linear_2_48)"/>
<path opacity="0.5" fill-rule="evenodd" clip-rule="evenodd" d="M19.0643 0L7.73022 20.6892H14.0105L25.3446 0H19.0643Z" fill="url(#paint1_linear_2_48)"/>
<path opacity="0.15" fill-rule="evenodd" clip-rule="evenodd" d="M26.7945 0L15.4615 20.6892H21.7418L33.0748 0H26.7945Z" fill="url(#paint2_linear_2_48)"/>
</g>
<defs>
<linearGradient id="paint0_linear_2_48" x1="1271.67" y1="-0.000120003" x2="49.4359" y2="1902.62" gradientUnits="userSpaceOnUse">
<stop stop-color="#33D35E"/>
<stop offset="1" stop-color="#2AB6D9"/>
</linearGradient>
<linearGradient id="paint1_linear_2_48" x1="1279.4" y1="-0.000120003" x2="57.1661" y2="1902.62" gradientUnits="userSpaceOnUse">
<stop stop-color="#33D35E"/>
<stop offset="1" stop-color="#2AB6D9"/>
</linearGradient>
<linearGradient id="paint2_linear_2_48" x1="1287.05" y1="-0.000120003" x2="64.7912" y2="1902.56" gradientUnits="userSpaceOnUse">
<stop stop-color="#33D35E"/>
<stop offset="1" stop-color="#2AB6D9"/>
</linearGradient>
<clipPath id="clip0_2_48">
<rect width="145.833" height="21" fill="white"/>
</clipPath>
</defs>
</svg>
